<svg xmlns="http://www.w3.org/2000/svg" viewBox="0 0 200 200" fill="none">
  <!-- Background Circle -->
  <circle cx="100" cy="100" r="95" fill="#1CCAD8" />
  <circle cx="100" cy="100" r="85" fill="#ffffff" fill-opacity="0.2" />
  
  <!-- Space Helmet -->
  <circle cx="100" cy="100" r="70" fill="#ffffff" fill-opacity="0.6" stroke="#B0B7C3" stroke-width="2" />
  <path d="M55 120 Q 100 145, 145 120" stroke="#B0B7C3" stroke-width="3" fill="none" />
  
  <!-- Colorful Hair -->
  <path d="M65 85 Q 70 50, 100 45 Q 130 50, 135 85 Q 120 70, 100 75 Q 80 70, 65 85 Z" fill="#FF5252" />
  <path d="M65 85 Q 80 55, 100 60 Q 120 55, 135 85 Q 120 70, 100 85 Q 80 70, 65 85 Z" fill="#FF9D5C" />
  <path d="M70 90 Q 85 65, 100 70 Q 115 65, 130 90 Q 115 80, 100 95 Q 85 80, 70 90 Z" fill="#D359FF" />

  <!-- Green Eye -->
  <circle cx="115" cy="95" r="8" fill="#ffffff" />
  <circle cx="115" cy="95" r="6" fill="#33FF99" />
  <circle cx="118" cy="92" r="2" fill="#ffffff" fill-opacity="0.8" />
  
  <!-- EKKO text -->
  <text x="100" y="175" font-family="Arial, sans-serif" font-weight="bold" font-size="24" text-anchor="middle" fill="#ffffff">EKKO</text>
</svg>
