<svg xmlns="http://www.w3.org/2000/svg" viewBox="0 0 160 160">
  <rect width="160" height="160" fill="#FFFFFF" />
  <rect x="8" y="8" width="40" height="40" fill="#0F172A" />
  <rect x="16" y="16" width="24" height="24" fill="#FFFFFF" />
  <rect x="24" y="24" width="8" height="8" fill="#0F172A" />

  <rect x="112" y="8" width="40" height="40" fill="#0F172A" />
  <rect x="120" y="16" width="24" height="24" fill="#FFFFFF" />
  <rect x="128" y="24" width="8" height="8" fill="#0F172A" />

  <rect x="8" y="112" width="40" height="40" fill="#0F172A" />
  <rect x="16" y="120" width="24" height="24" fill="#FFFFFF" />
  <rect x="24" y="128" width="8" height="8" fill="#0F172A" />

  <!-- Random pattern -->
  <rect x="64" y="16" width="8" height="8" fill="#0F172A" />
  <rect x="80" y="16" width="8" height="8" fill="#0F172A" />
  <rect x="96" y="24" width="8" height="8" fill="#0F172A" />
  <rect x="72" y="32" width="8" height="8" fill="#0F172A" />
  <rect x="88" y="40" width="8" height="8" fill="#0F172A" />
  <rect x="104" y="56" width="8" height="8" fill="#0F172A" />
  <rect x="56" y="56" width="8" height="8" fill="#0F172A" />
  <rect x="72" y="64" width="8" height="8" fill="#0F172A" />
  <rect x="88" y="72" width="8" height="8" fill="#0F172A" />
  <rect x="104" y="88" width="8" height="8" fill="#0F172A" />
  <rect x="64" y="88" width="8" height="8" fill="#0F172A" />
  <rect x="80" y="104" width="8" height="8" fill="#0F172A" />
  <rect x="96" y="112" width="8" height="8" fill="#0F172A" />
  <rect x="112" y="120" width="8" height="8" fill="#0F172A" />
  <rect x="128" y="128" width="8" height="8" fill="#0F172A" />
  <rect x="72" y="136" width="8" height="8" fill="#0F172A" />
  <rect x="88" y="136" width="8" height="8" fill="#0F172A" />
  <rect x="104" y="144" width="8" height="8" fill="#0F172A" />
</svg>

