<svg xmlns="http://www.w3.org/2000/svg" viewBox="0 0 100 100" fill="none">
  <!-- Background Circle -->
  <circle cx="50" cy="50" r="48" fill="#1CCAD8" />
  
  <!-- Space Helmet -->
  <circle cx="50" cy="50" r="35" fill="#ffffff" fill-opacity="0.5" stroke="#B0B7C3" stroke-width="1.5" />
  
  <!-- Colorful Hair -->
  <path d="M33 43 Q 35 25, 50 22 Q 65 25, 68 43 Q 60 35, 50 38 Q 40 35, 33 43 Z" fill="#FF5252" />
  <path d="M33 43 Q 40 28, 50 30 Q 60 28, 68 43 Q 60 35, 50 42 Q 40 35, 33 43 Z" fill="#FF9D5C" />
  <path d="M35 45 Q 42 32, 50 35 Q 58 32, 65 45 Q 58 40, 50 47 Q 42 40, 35 45 Z" fill="#D359FF" />

  <!-- Green Eye -->
  <circle cx="58" cy="48" r="5" fill="#ffffff" />
  <circle cx="58" cy="48" r="3" fill="#33FF99" />
  <circle cx="59" cy="47" r="1" fill="#ffffff" fill-opacity="0.8" />
</svg>
