<svg fill="none" height="24" viewBox="0 0 24 24" width="24" xmlns="http://www.w3.org/2000/svg"><g stroke="#000" stroke-miterlimit="10" stroke-width="1.5"><path d="m6.06033 15.5802 5.60997-9.61c.16-.28.56-.30001.75-.04001l1.56 2.09c.45.6.48 1.41.09 2.05001l-3.34 5.35c-.33.53-.90996.85-1.53996.85h-2.73999c-.35-.01-.57002-.39-.39002-.69z" opacity=".4" stroke-linecap="round" stroke-linejoin="round"/><path d="m15.2401 12.3698-1.92 3.2c-.18.3.04.69.39.69h3.84c.35 0 .57-.38.39-.69l-1.92-3.2c-.17-.29-.6-.29-.78 0z" opacity=".4" stroke-linecap="round" stroke-linejoin="round"/><path d="m12 22c5.5228 0 10-4.4772 10-10 0-5.52285-4.4772-10-10-10-5.52285 0-10 4.47715-10 10 0 5.5228 4.47715 10 10 10z"/></g></svg>