<svg width="1037" height="1037" viewBox="0 0 1037 1037" fill="none" xmlns="http://www.w3.org/2000/svg">
<circle cx="518.5" cy="518.5" r="518.5" fill="#FF0421"/>
<path d="M761.806 365.281H576.288L532.635 674.89H621.452L632 599.904H733.004C824.246 599.904 869.715 563.32 880.022 485.011C890.634 404.284 852.439 365.281 761.799 365.281H761.806ZM789.998 479.573C786.362 512.834 767.264 527.343 729.069 527.343H642.213L654.805 437.848H745.742C780.301 437.848 793.337 449.642 789.998 479.573Z" fill="#FAFAF9"/>
<path d="M357.424 358.028C236.479 358.028 173.124 408.824 158.267 517.672C143.11 628.938 195.25 682.152 319.228 682.152C443.207 682.152 503.229 631.356 518.081 522.508C533.244 411.242 481.409 358.028 357.424 358.028ZM427.753 517.672C419.565 579.053 388.65 606.565 324.084 606.565C263.459 606.565 240.725 582.376 248.601 522.508C256.788 460.83 288.313 433.614 352.27 433.614C416.227 433.614 435.629 458.107 427.753 517.672Z" fill="#FAFAF9"/>
</svg>
